<?xml version="1.0" standalone="no"?><!DOCTYPE svg PUBLIC "-//W3C//DTD SVG 1.1//EN" "http://www.w3.org/Graphics/SVG/1.1/DTD/svg11.dtd"><svg t="1733317211312" class="icon" viewBox="0 0 1024 1024" version="1.1" xmlns="http://www.w3.org/2000/svg" p-id="5328" xmlns:xlink="http://www.w3.org/1999/xlink" width="350" height="350"><path d="M853.333 0C947.59 0 1024 76.41 1024 170.667v682.666C1024 947.59 947.59 1024 853.333 1024H170.667C76.41 1024 0 947.59 0 853.333V170.667C0 76.41 76.41 0 170.667 0h682.666zM371.627 362.667H304.64l-91.307 298.666h57.771l20.053-76.672h92.416l20.054 76.672h59.648l-91.648-298.666z m218.752 0h-93.611v298.666h57.003V555.18h38.144c61.226 0 110.165-30.678 110.165-98.859 0-70.656-48.555-93.653-111.701-93.653z m220.288 0h-57.003v298.666h57.003V362.667z m-472.918 45.226c8.448 32.256 16.171 66.56 25.003 97.664l8.49 32.683h-67.797l8.491-32.683c8.448-31.104 16.939-64.981 24.235-97.706h1.578v0.042z m248.406 2.006c39.253 0 60.074 11.69 60.074 46.421 0 34.304-18.901 51.627-58.154 51.627H553.77v-98.048h32.384z" fill="#698FDF" p-id="5329"></path></svg>