<?xml version="1.0" standalone="no"?><!DOCTYPE svg PUBLIC "-//W3C//DTD SVG 1.1//EN" "http://www.w3.org/Graphics/SVG/1.1/DTD/svg11.dtd"><svg t="1732193870781" class="icon" viewBox="0 0 1024 1024" version="1.1" xmlns="http://www.w3.org/2000/svg" p-id="7669" xmlns:xlink="http://www.w3.org/1999/xlink" width="200" height="200"><path d="M788.48 0c-128 0-235.52 107.52-235.52 235.52l0 235.52 235.52 0c128 0 235.52-107.52 235.52-235.52S916.48 0 788.48 0z" p-id="7670" fill="#cdcdcd"></path><path d="M788.48 655.36c71.68 0 133.12 61.44 133.12 133.12S860.16 921.6 788.48 921.6c-71.68 0-133.12-61.44-133.12-133.12l0-133.12L788.48 655.36M788.48 552.96l-235.52 0 0 235.52c0 128 107.52 235.52 235.52 235.52 128 0 235.52-107.52 235.52-235.52S916.48 552.96 788.48 552.96L788.48 552.96z" p-id="7671" fill="#cdcdcd"></path><path d="M235.52 0C107.52 0 0 107.52 0 235.52s107.52 235.52 235.52 235.52l235.52 0L471.04 235.52C471.04 107.52 368.64 0 235.52 0z" p-id="7672" fill="#cdcdcd"></path><path d="M0 788.48C0 916.48 107.52 1024 235.52 1024s235.52-107.52 235.52-235.52l0-235.52L235.52 552.96C107.52 552.96 0 655.36 0 788.48z" p-id="7673" fill="#cdcdcd"></path></svg>