<?xml version="1.0" standalone="no"?><!DOCTYPE svg PUBLIC "-//W3C//DTD SVG 1.1//EN" "http://www.w3.org/Graphics/SVG/1.1/DTD/svg11.dtd"><svg t="1733059381358" class="icon" viewBox="0 0 1024 1024" version="1.1" xmlns="http://www.w3.org/2000/svg" p-id="3948" xmlns:xlink="http://www.w3.org/1999/xlink" width="256" height="256"><path d="M250.65016889 520.20906667H188.68906667a71.91779555 71.91779555 0 0 0-73.82357334 69.58648888V878.10275555a71.91779555 71.91779555 0 0 0 73.82357334 69.5864889h61.96110222a71.91779555 71.91779555 0 0 0 73.82471111-69.5864889V589.84903111a71.91779555 71.91779555 0 0 0-73.82471111-69.63996444z m10.59271111 357.89255111a10.27413333 10.27413333 0 0 1-10.59271111 9.95555555H188.68906667a10.27413333 10.27413333 0 0 1-10.59271112-9.95555555V589.84903111a10.27413333 10.27413333 0 0 1 10.59271112-9.95555556h61.96110222a10.27413333 10.27413333 0 0 1 10.59271111 9.95555556zM531.17155555 555.84995555H469.20817778a74.14215111 74.14215111 0 0 0-73.82357333 74.14101334v243.6096a74.14215111 74.14215111 0 0 0 73.82357333 74.14101333h61.96110222a74.14215111 74.14215111 0 0 0 73.82471111-74.14215111V629.99096889a74.14215111 74.14215111 0 0 0-73.82471111-74.14101334z m10.59157334 317.74947556a10.59271111 10.59271111 0 0 1-10.59271111 10.59271111h-61.96110223a10.59271111 10.59271111 0 0 1-10.59157333-10.59271111V629.99096889a10.59271111 10.59271111 0 0 1 10.59271111-10.59157334h61.95996445a10.59271111 10.59271111 0 0 1 10.59271111 10.59271112zM813.49176889 428.69646222h-62.22506667a74.14215111 74.14215111 0 0 0-73.82471111 74.14215111v370.70848a74.14215111 74.14215111 0 0 0 73.82357334 74.14101334h61.96224a74.14215111 74.14215111 0 0 0 73.82357333-74.14101334V502.83861333a74.14215111 74.14215111 0 0 0-73.55960889-74.14215111z m10.59271111 444.85063111a10.59271111 10.59271111 0 0 1-10.59271111 10.59157334h-62.22506667a10.59271111 10.59271111 0 0 1-10.59271111-10.59271112V502.83975111a10.59271111 10.59271111 0 0 1 10.59271111-10.59271111h61.96110223a10.59271111 10.59271111 0 0 1 10.59157333 10.59271111zM874.97728 89.02087111L666.53297778 144.41585778a16.20536889 16.20536889 0 0 0-7.89162667 27.96202667l55.87171556 50.46954666-155.7504 111.74115556L440.39964445 249.856a38.13034667 38.13034667 0 0 0-43.74300445 0L138.27299555 435.21137778a29.76312889 29.76312889 0 0 0-5.66613333 44.64298667 36.64782222 36.64782222 0 0 0 27.59111111 12.02176 37.49432889 37.49432889 0 0 0 21.87150222-6.88469334l236.51214223-169.46744889 118.36188444 84.73372445a38.18382222 38.18382222 0 0 0 43.74300445 0l183.92519111-131.97198222 47.34407111 42.73720888a19.33084445 19.33084445 0 0 0 31.14097778-7.68l55.18222222-193.87960888a17.79484445 17.79484445 0 0 0-23.30168889-20.44245334z" p-id="3949" fill="#cdcdcd"></path></svg>