<?xml version="1.0" standalone="no"?><!DOCTYPE svg PUBLIC "-//W3C//DTD SVG 1.1//EN" "http://www.w3.org/Graphics/SVG/1.1/DTD/svg11.dtd"><svg t="1732194325416" class="icon" viewBox="0 0 1024 1024" version="1.1" xmlns="http://www.w3.org/2000/svg" p-id="13669" xmlns:xlink="http://www.w3.org/1999/xlink" width="200" height="200"><path d="M409.6 268.8c-106.042 0-192 85.958-192 192 0 53.907 22.214 102.63 57.997 137.504C162.163 649.427 83.2 763.488 83.2 896H736c0-132.506-78.963-246.573-192.397-297.709C579.38 563.431 601.6 514.707 601.6 460.8c0-106.042-85.958-192-192-192z m204.8-147.2c-67.277 0-126.464 34.598-160.755 86.976a254.182 254.182 0 0 1 82.374 29.568A108.48 108.48 0 0 1 614.4 204.8c60.09 0 108.8 48.71 108.8 108.8 0 43.437-25.453 80.922-62.253 98.368A257.307 257.307 0 0 1 665.6 460.8a256.84 256.84 0 0 1-4.736 49.242C772.96 531.712 857.6 630.374 857.6 748.8h83.2c0-132.506-78.963-246.573-192.397-297.709C784.18 416.231 806.4 367.507 806.4 313.6c0-106.042-85.958-192-192-192z" p-id="13670" fill="#cdcdcd"></path></svg>